<?xml version="1.0" standalone="no"?>
<svg xmlns:xlink="http://www.w3.org/1999/xlink" id="wave" style="transform:rotate(0deg); transition: 0.3s" viewBox="0 0 1440 490" version="1.1" xmlns="http://www.w3.org/2000/svg"><defs><linearGradient id="sw-gradient-0" x1="0" x2="0" y1="1" y2="0"><stop stop-color="rgba(219, 216, 227, 1)" offset="0%"/><stop stop-color="rgba(92, 84, 112, 1)" offset="100%"/></linearGradient></defs><path style="transform:translate(0, 0px); opacity:1" fill="url(#sw-gradient-0)" d="M0,441L34.3,392C68.6,343,137,245,206,245C274.3,245,343,343,411,359.3C480,376,549,310,617,245C685.7,180,754,114,823,81.7C891.4,49,960,49,1029,73.5C1097.1,98,1166,147,1234,179.7C1302.9,212,1371,229,1440,196C1508.6,163,1577,82,1646,89.8C1714.3,98,1783,196,1851,204.2C1920,212,1989,131,2057,130.7C2125.7,131,2194,212,2263,236.8C2331.4,261,2400,229,2469,245C2537.1,261,2606,327,2674,351.2C2742.9,376,2811,359,2880,367.5C2948.6,376,3017,408,3086,416.5C3154.3,425,3223,408,3291,351.2C3360,294,3429,196,3497,187.8C3565.7,180,3634,261,3703,318.5C3771.4,376,3840,408,3909,359.3C3977.1,310,4046,180,4114,163.3C4182.9,147,4251,245,4320,269.5C4388.6,294,4457,245,4526,236.8C4594.3,229,4663,261,4731,269.5C4800,278,4869,261,4903,253.2L4937.1,245L4937.1,490L4902.9,490C4868.6,490,4800,490,4731,490C4662.9,490,4594,490,4526,490C4457.1,490,4389,490,4320,490C4251.4,490,4183,490,4114,490C4045.7,490,3977,490,3909,490C3840,490,3771,490,3703,490C3634.3,490,3566,490,3497,490C3428.6,490,3360,490,3291,490C3222.9,490,3154,490,3086,490C3017.1,490,2949,490,2880,490C2811.4,490,2743,490,2674,490C2605.7,490,2537,490,2469,490C2400,490,2331,490,2263,490C2194.3,490,2126,490,2057,490C1988.6,490,1920,490,1851,490C1782.9,490,1714,490,1646,490C1577.1,490,1509,490,1440,490C1371.4,490,1303,490,1234,490C1165.7,490,1097,490,1029,490C960,490,891,490,823,490C754.3,490,686,490,617,490C548.6,490,480,490,411,490C342.9,490,274,490,206,490C137.1,490,69,490,34,490L0,490Z"/><defs><linearGradient id="sw-gradient-1" x1="0" x2="0" y1="1" y2="0"><stop stop-color="rgba(53, 47, 68, 1)" offset="0%"/><stop stop-color="rgba(42, 36, 56, 1)" offset="100%"/></linearGradient></defs><path style="transform:translate(0, 50px); opacity:0.9" fill="url(#sw-gradient-1)" d="M0,0L34.3,32.7C68.6,65,137,131,206,138.8C274.3,147,343,98,411,114.3C480,131,549,212,617,277.7C685.7,343,754,392,823,343C891.4,294,960,147,1029,73.5C1097.1,0,1166,0,1234,57.2C1302.9,114,1371,229,1440,228.7C1508.6,229,1577,114,1646,122.5C1714.3,131,1783,261,1851,310.3C1920,359,1989,327,2057,310.3C2125.7,294,2194,294,2263,318.5C2331.4,343,2400,392,2469,408.3C2537.1,425,2606,408,2674,343C2742.9,278,2811,163,2880,122.5C2948.6,82,3017,114,3086,138.8C3154.3,163,3223,180,3291,228.7C3360,278,3429,359,3497,375.7C3565.7,392,3634,343,3703,294C3771.4,245,3840,196,3909,147C3977.1,98,4046,49,4114,81.7C4182.9,114,4251,229,4320,228.7C4388.6,229,4457,114,4526,89.8C4594.3,65,4663,131,4731,179.7C4800,229,4869,261,4903,277.7L4937.1,294L4937.1,490L4902.9,490C4868.6,490,4800,490,4731,490C4662.9,490,4594,490,4526,490C4457.1,490,4389,490,4320,490C4251.4,490,4183,490,4114,490C4045.7,490,3977,490,3909,490C3840,490,3771,490,3703,490C3634.3,490,3566,490,3497,490C3428.6,490,3360,490,3291,490C3222.9,490,3154,490,3086,490C3017.1,490,2949,490,2880,490C2811.4,490,2743,490,2674,490C2605.7,490,2537,490,2469,490C2400,490,2331,490,2263,490C2194.3,490,2126,490,2057,490C1988.6,490,1920,490,1851,490C1782.9,490,1714,490,1646,490C1577.1,490,1509,490,1440,490C1371.4,490,1303,490,1234,490C1165.7,490,1097,490,1029,490C960,490,891,490,823,490C754.3,490,686,490,617,490C548.6,490,480,490,411,490C342.9,490,274,490,206,490C137.1,490,69,490,34,490L0,490Z"/><defs><linearGradient id="sw-gradient-2" x1="0" x2="0" y1="1" y2="0"><stop stop-color="rgba(53, 47, 68, 1)" offset="0%"/><stop stop-color="rgba(219, 216, 227, 1)" offset="100%"/></linearGradient></defs><path style="transform:translate(0, 100px); opacity:0.8" fill="url(#sw-gradient-2)" d="M0,294L34.3,310.3C68.6,327,137,359,206,359.3C274.3,359,343,327,411,326.7C480,327,549,359,617,310.3C685.7,261,754,131,823,73.5C891.4,16,960,33,1029,81.7C1097.1,131,1166,212,1234,204.2C1302.9,196,1371,98,1440,122.5C1508.6,147,1577,294,1646,343C1714.3,392,1783,343,1851,285.8C1920,229,1989,163,2057,147C2125.7,131,2194,163,2263,196C2331.4,229,2400,261,2469,277.7C2537.1,294,2606,294,2674,285.8C2742.9,278,2811,261,2880,228.7C2948.6,196,3017,147,3086,155.2C3154.3,163,3223,229,3291,269.5C3360,310,3429,327,3497,294C3565.7,261,3634,180,3703,138.8C3771.4,98,3840,98,3909,122.5C3977.1,147,4046,196,4114,220.5C4182.9,245,4251,245,4320,204.2C4388.6,163,4457,82,4526,98C4594.3,114,4663,229,4731,269.5C4800,310,4869,278,4903,261.3L4937.1,245L4937.1,490L4902.9,490C4868.6,490,4800,490,4731,490C4662.9,490,4594,490,4526,490C4457.1,490,4389,490,4320,490C4251.4,490,4183,490,4114,490C4045.7,490,3977,490,3909,490C3840,490,3771,490,3703,490C3634.3,490,3566,490,3497,490C3428.6,490,3360,490,3291,490C3222.9,490,3154,490,3086,490C3017.1,490,2949,490,2880,490C2811.4,490,2743,490,2674,490C2605.7,490,2537,490,2469,490C2400,490,2331,490,2263,490C2194.3,490,2126,490,2057,490C1988.6,490,1920,490,1851,490C1782.9,490,1714,490,1646,490C1577.1,490,1509,490,1440,490C1371.4,490,1303,490,1234,490C1165.7,490,1097,490,1029,490C960,490,891,490,823,490C754.3,490,686,490,617,490C548.6,490,480,490,411,490C342.9,490,274,490,206,490C137.1,490,69,490,34,490L0,490Z"/><defs><linearGradient id="sw-gradient-3" x1="0" x2="0" y1="1" y2="0"><stop stop-color="rgba(42, 36, 56, 1)" offset="0%"/><stop stop-color="rgba(92, 84, 112, 1)" offset="100%"/></linearGradient></defs><path style="transform:translate(0, 150px); opacity:0.7" fill="url(#sw-gradient-3)" d="M0,392L34.3,392C68.6,392,137,392,206,343C274.3,294,343,196,411,204.2C480,212,549,327,617,359.3C685.7,392,754,343,823,326.7C891.4,310,960,327,1029,285.8C1097.1,245,1166,147,1234,138.8C1302.9,131,1371,212,1440,220.5C1508.6,229,1577,163,1646,155.2C1714.3,147,1783,196,1851,228.7C1920,261,1989,278,2057,285.8C2125.7,294,2194,294,2263,294C2331.4,294,2400,294,2469,245C2537.1,196,2606,98,2674,106.2C2742.9,114,2811,229,2880,253.2C2948.6,278,3017,212,3086,220.5C3154.3,229,3223,310,3291,285.8C3360,261,3429,131,3497,122.5C3565.7,114,3634,229,3703,261.3C3771.4,294,3840,245,3909,204.2C3977.1,163,4046,131,4114,138.8C4182.9,147,4251,196,4320,245C4388.6,294,4457,343,4526,359.3C4594.3,376,4663,359,4731,310.3C4800,261,4869,180,4903,138.8L4937.1,98L4937.1,490L4902.9,490C4868.6,490,4800,490,4731,490C4662.9,490,4594,490,4526,490C4457.1,490,4389,490,4320,490C4251.4,490,4183,490,4114,490C4045.7,490,3977,490,3909,490C3840,490,3771,490,3703,490C3634.3,490,3566,490,3497,490C3428.6,490,3360,490,3291,490C3222.9,490,3154,490,3086,490C3017.1,490,2949,490,2880,490C2811.4,490,2743,490,2674,490C2605.7,490,2537,490,2469,490C2400,490,2331,490,2263,490C2194.3,490,2126,490,2057,490C1988.6,490,1920,490,1851,490C1782.9,490,1714,490,1646,490C1577.1,490,1509,490,1440,490C1371.4,490,1303,490,1234,490C1165.7,490,1097,490,1029,490C960,490,891,490,823,490C754.3,490,686,490,617,490C548.6,490,480,490,411,490C342.9,490,274,490,206,490C137.1,490,69,490,34,490L0,490Z"/></svg>